<?xml version="1.0" encoding="UTF-8"?>
<svg xmlns="http://www.w3.org/2000/svg" xmlns:xlink="http://www.w3.org/1999/xlink" width="48px" height="48px" viewBox="0 0 48 48" version="1.1">
<g id="surface1">
<path style=" stroke:none;fill-rule:nonzero;fill:rgb(0%,0%,0%);fill-opacity:1;" d="M 33.890625 0.113281 C 34.359375 0.308594 34.695312 0.730469 34.789062 1.226562 L 36.65625 11.34375 L 46.773438 13.199219 C 47.269531 13.292969 47.691406 13.632812 47.886719 14.101562 C 48.085938 14.570312 48.027344 15.101562 47.738281 15.523438 L 41.898438 24 L 47.738281 32.464844 C 48.027344 32.886719 48.085938 33.421875 47.886719 33.890625 C 47.691406 34.359375 47.269531 34.695312 46.773438 34.789062 L 36.65625 36.65625 L 34.789062 46.773438 C 34.695312 47.269531 34.359375 47.691406 33.890625 47.886719 C 33.421875 48.085938 32.886719 48.027344 32.464844 47.738281 L 24 41.898438 L 15.535156 47.738281 C 15.113281 48.027344 14.578125 48.085938 14.109375 47.886719 C 13.640625 47.691406 13.304688 47.269531 13.210938 46.773438 L 11.34375 36.65625 L 1.226562 34.789062 C 0.730469 34.695312 0.308594 34.359375 0.113281 33.890625 C -0.0859375 33.421875 -0.0273438 32.886719 0.261719 32.464844 L 6.101562 24 L 0.261719 15.535156 C -0.0273438 15.113281 -0.0859375 14.578125 0.113281 14.109375 C 0.308594 13.640625 0.730469 13.304688 1.226562 13.210938 L 11.34375 11.34375 L 13.210938 1.226562 C 13.304688 0.730469 13.640625 0.308594 14.109375 0.113281 C 14.578125 -0.0859375 15.113281 -0.0273438 15.535156 0.261719 L 24 6.101562 L 32.464844 0.261719 C 32.886719 -0.0273438 33.421875 -0.0859375 33.890625 0.113281 Z M 15 24 C 15 19.03125 19.03125 15 24 15 C 28.96875 15 33 19.03125 33 24 C 33 28.96875 28.96875 33 24 33 C 19.03125 33 15 28.96875 15 24 Z M 36 24 C 36 17.371094 30.628906 12 24 12 C 17.371094 12 12 17.371094 12 24 C 12 30.628906 17.371094 36 24 36 C 30.628906 36 36 30.628906 36 24 Z M 36 24 "/>
</g>
</svg>
