<?xml version="1.0" encoding="UTF-8"?>
<svg xmlns="http://www.w3.org/2000/svg" xmlns:xlink="http://www.w3.org/1999/xlink" width="32px" height="32px" viewBox="0 0 32 32" version="1.1">
<g id="surface1">
<path style=" stroke:none;fill-rule:nonzero;fill:rgb(0%,0%,0%);fill-opacity:1;" d="M 22.59375 0.0742188 C 22.90625 0.207031 23.132812 0.488281 23.195312 0.820312 L 24.4375 7.5625 L 31.179688 8.800781 C 31.511719 8.863281 31.792969 9.085938 31.925781 9.398438 C 32.054688 9.710938 32.019531 10.070312 31.824219 10.351562 L 27.929688 16 L 31.824219 21.644531 C 32.019531 21.925781 32.054688 22.28125 31.925781 22.59375 C 31.792969 22.90625 31.511719 23.132812 31.179688 23.195312 L 24.4375 24.4375 L 23.195312 31.179688 C 23.132812 31.511719 22.90625 31.792969 22.59375 31.925781 C 22.28125 32.054688 21.925781 32.019531 21.644531 31.824219 L 16 27.929688 L 10.355469 31.824219 C 10.074219 32.019531 9.71875 32.054688 9.40625 31.925781 C 9.09375 31.792969 8.867188 31.511719 8.804688 31.179688 L 7.5625 24.4375 L 0.820312 23.195312 C 0.488281 23.132812 0.207031 22.90625 0.0742188 22.59375 C -0.0546875 22.28125 -0.0195312 21.925781 0.175781 21.644531 L 4.070312 16 L 0.175781 10.355469 C -0.0195312 10.074219 -0.0546875 9.71875 0.0742188 9.40625 C 0.207031 9.09375 0.488281 8.867188 0.820312 8.804688 L 7.5625 7.5625 L 8.804688 0.820312 C 8.867188 0.488281 9.09375 0.207031 9.40625 0.0742188 C 9.71875 -0.0546875 10.074219 -0.0195312 10.355469 0.175781 L 16 4.070312 L 21.644531 0.175781 C 21.925781 -0.0195312 22.28125 -0.0546875 22.59375 0.0742188 Z M 10 16 C 10 12.6875 12.6875 10 16 10 C 19.3125 10 22 12.6875 22 16 C 22 19.3125 19.3125 22 16 22 C 12.6875 22 10 19.3125 10 16 Z M 24 16 C 24 11.582031 20.417969 8 16 8 C 11.582031 8 8 11.582031 8 16 C 8 20.417969 11.582031 24 16 24 C 20.417969 24 24 20.417969 24 16 Z M 24 16 "/>
</g>
</svg>
