<?xml version="1.0" encoding="UTF-8"?>
<svg xmlns="http://www.w3.org/2000/svg" xmlns:xlink="http://www.w3.org/1999/xlink" width="16px" height="16px" viewBox="0 0 16 16" version="1.1">
<g id="surface1">
<path style=" stroke:none;fill-rule:nonzero;fill:rgb(0%,0%,0%);fill-opacity:1;" d="M 11.296875 0.0390625 C 11.453125 0.101562 11.566406 0.242188 11.597656 0.410156 L 12.21875 3.78125 L 15.589844 4.398438 C 15.757812 4.429688 15.898438 4.542969 15.960938 4.699219 C 16.027344 4.855469 16.007812 5.035156 15.914062 5.175781 L 13.964844 8 L 15.914062 10.820312 C 16.007812 10.960938 16.027344 11.140625 15.960938 11.296875 C 15.898438 11.453125 15.757812 11.566406 15.589844 11.597656 L 12.21875 12.21875 L 11.597656 15.589844 C 11.566406 15.757812 11.453125 15.898438 11.296875 15.960938 C 11.140625 16.027344 10.960938 16.007812 10.820312 15.914062 L 8 13.964844 L 5.179688 15.914062 C 5.039062 16.007812 4.859375 16.027344 4.703125 15.960938 C 4.546875 15.898438 4.433594 15.757812 4.402344 15.589844 L 3.78125 12.21875 L 0.410156 11.597656 C 0.242188 11.566406 0.101562 11.453125 0.0390625 11.296875 C -0.0273438 11.140625 -0.0078125 10.960938 0.0859375 10.820312 L 2.035156 8 L 0.0859375 5.179688 C -0.0078125 5.039062 -0.0273438 4.859375 0.0390625 4.703125 C 0.101562 4.546875 0.242188 4.433594 0.410156 4.402344 L 3.78125 3.78125 L 4.402344 0.410156 C 4.433594 0.242188 4.546875 0.101562 4.703125 0.0390625 C 4.859375 -0.0273438 5.039062 -0.0078125 5.179688 0.0859375 L 8 2.035156 L 10.820312 0.0859375 C 10.960938 -0.0078125 11.140625 -0.0273438 11.296875 0.0390625 Z M 5 8 C 5 6.34375 6.34375 5 8 5 C 9.65625 5 11 6.34375 11 8 C 11 9.65625 9.65625 11 8 11 C 6.34375 11 5 9.65625 5 8 Z M 12 8 C 12 5.789062 10.210938 4 8 4 C 5.789062 4 4 5.789062 4 8 C 4 10.210938 5.789062 12 8 12 C 10.210938 12 12 10.210938 12 8 Z M 12 8 "/>
</g>
</svg>
